<?xml version="1.0" encoding="iso-8859-1"?>
<!-- Generator: Adobe Illustrator 16.0.0, SVG Export Plug-In . SVG Version: 6.00 Build 0)  -->
<!DOCTYPE svg PUBLIC "-//W3C//DTD SVG 1.1//EN" "http://www.w3.org/Graphics/SVG/1.1/DTD/svg11.dtd">
<svg version="1.1" id="Capa_1" xmlns="http://www.w3.org/2000/svg" xmlns:xlink="http://www.w3.org/1999/xlink" x="0px" y="0px"
	 width="47px" height="47px" viewBox="0 0 47 47" style="enable-background:new 0 0 47 47;" xml:space="preserve">
<g>
	<path d="M37.605,33.838h-1.367V12.739C36.238,5.714,30.525,0,23.5,0c-7.025,0-12.739,5.714-12.739,12.739v22.304H9.394
		c-1.477,0-2.685,1.211-2.685,2.688v5.375c0,1.478,1.208,2.685,2.685,2.685h14.555c0.484,0.728,1.308,1.21,2.236,1.21h11.422
		c1.477,0,2.685-1.211,2.685-2.686v-1.209V37.73v-1.207C40.291,35.046,39.083,33.838,37.605,33.838z M14.79,12.739
		c0-4.802,3.908-8.71,8.71-8.71s8.71,3.908,8.71,8.71v21.099h-6.024c-0.93,0-1.751,0.48-2.235,1.205h-9.16V12.739z"/>
</g>
<g>
</g>
<g>
</g>
<g>
</g>
<g>
</g>
<g>
</g>
<g>
</g>
<g>
</g>
<g>
</g>
<g>
</g>
<g>
</g>
<g>
</g>
<g>
</g>
<g>
</g>
<g>
</g>
<g>
</g>
</svg>
