<?xml version="1.0" encoding="iso-8859-1"?>
<!-- Generator: Adobe Illustrator 19.0.0, SVG Export Plug-In . SVG Version: 6.00 Build 0)  -->
<svg version="1.1" id="Layer_1" xmlns="http://www.w3.org/2000/svg" xmlns:xlink="http://www.w3.org/1999/xlink" x="0px" y="0px"
	 viewBox="0 0 373.438 373.438" style="enable-background:new 0 0 373.438 373.438;" xml:space="preserve">
<g>
	<g>
		<polygon points="219.075,201.236 147.211,129.377 137.529,139.059 209.388,210.918 		"/>
		<path d="M188.708,261.043c-3.712-3.707-6.39-7.726-7.916-11.377c-2.463,6.001-1.889,13.066,2.012,18.575l14.08,14.07
			l13.466-13.466C206.526,272.671,196.839,269.174,188.708,261.043z"/>
		<path d="M178.489,271.928c-7.24-9.789-6.456-23.649,2.417-32.517l23.695-23.695l-71.859-71.864l-92.293,92.293l0.026,0.026
			c-0.169,0.164-0.348,0.302-0.517,0.466c-19.845,19.845-19.845,52.019,0,71.859c19.845,19.845,52.019,19.845,71.859,0
			c0.164-0.164,0.302-0.348,0.466-0.517l0.026,0.026l-0.492,0.492l-2.821,2.821c9.769-9.769,25.6-9.769,35.369,0l54.554,54.548
			c10.158,10.112,26.583,10.097,36.726-0.041c10.153-10.153,10.153-26.614,0-36.767
			C235.566,328.975,199.629,293.053,178.489,271.928z"/>
		<path d="M280.331,41.431c-4.521-4.521-11.853-4.521-16.374,0l-5.53,5.53l42.982,42.982l5.53-5.53
			c4.521-4.521,4.521-11.853,0-16.374L280.331,41.431z"/>
		<polygon points="340.393,1.039 307.328,34.104 314.261,41.037 347.326,7.972 348.365,0 		"/>
		<polygon points="285.988,35.773 312.878,62.664 313.273,51.354 297.298,35.379 		"/>
		<path d="M254.843,140.36l-46.925-46.925c-6.886-6.886-18.053-6.886-24.934,0c-0.287,0.287-0.492,0.62-0.753,0.922l-30.234,30.234
			l71.859,71.859l31.068-31.068l-0.082-0.082C261.73,158.413,261.73,147.246,254.843,140.36z M175.012,131.538
			c-1.311-1.311-1.311-3.43,0-4.741l20.634-20.634c1.311-1.311,3.43-1.311,4.741,0c1.311,1.311,1.311,3.43,0,4.741l-20.634,20.634
			C178.448,132.849,176.323,132.849,175.012,131.538z M195.922,152.443c-1.311-1.311-1.311-3.43,0-4.741l20.634-20.634
			c1.311-1.311,3.43-1.311,4.741,0c1.311,1.311,1.311,3.43,0,4.741l-20.634,20.634C199.353,153.754,197.228,153.754,195.922,152.443
			z M242.202,152.719l-20.634,20.634c-1.311,1.311-3.43,1.311-4.741,0s-1.311-3.43,0-4.741l20.634-20.634
			c1.311-1.311,3.43-1.311,4.741,0S243.513,151.409,242.202,152.719z"/>
		<path d="M226.335,79.048c-4.521,4.521-4.521,11.853,0,16.374l26.609,26.609c4.521,4.521,11.853,4.521,16.374,0l5.151-5.151
			l-42.982-42.982L226.335,79.048z"/>
		
			<rect x="236.055" y="67.436" transform="matrix(-0.7071 -0.7071 0.7071 -0.7071 396.9301 328.2488)" width="60.786" height="28.963"/>
	</g>
</g>
<g>
</g>
<g>
</g>
<g>
</g>
<g>
</g>
<g>
</g>
<g>
</g>
<g>
</g>
<g>
</g>
<g>
</g>
<g>
</g>
<g>
</g>
<g>
</g>
<g>
</g>
<g>
</g>
<g>
</g>
</svg>
