<?xml version="1.0" encoding="iso-8859-1"?>
<!-- Generator: Adobe Illustrator 19.0.0, SVG Export Plug-In . SVG Version: 6.00 Build 0)  -->
<svg version="1.1" id="Layer_1" xmlns="http://www.w3.org/2000/svg" xmlns:xlink="http://www.w3.org/1999/xlink" x="0px" y="0px"
	 viewBox="0 0 397.716 397.716" style="enable-background:new 0 0 397.716 397.716;" xml:space="preserve">
<g>
	<g>
		<path d="M332.42,258.212l-73.661-73.661c-10.122-10.122-10.122-26.588,0-36.716l24.984-24.984l10.677,10.673
			c5.187,5.187,13.599,5.187,18.785,0l5.908-5.909L269.797,78.3l-5.914,5.914c-5.187,5.187-5.187,13.599,0,18.785l10.677,10.673
			l-24.982,24.982c-15.186,15.186-15.186,39.885,0,55.071l73.661,73.661c8.407,8.407,9.723,21.151,4.163,31.043l-7.194-7.199
			l-81.536,81.541l7.229,7.229c-9.912,5.658-22.738,4.367-31.191-4.086l-73.656-73.656c-15.186-15.186-39.885-15.186-55.071,0
			l-33.055,33.055l-14.413-14.413l-6.994,6.984l-9.062-9.062l-9.18-9.18l-9.18,9.18c-5.069,5.069-5.069,13.286,0,18.355
			l56.264,56.264c5.069,5.069,13.286,5.069,18.355,0l9.18-9.18l-9.18-9.18l-9.477-9.477l6.989-6.989l-14.126-14.126l33.055-33.055
			c10.122-10.122,26.588-10.122,36.716,0l73.661,73.661c13.537,13.537,34.601,14.925,49.782,4.316l8.305,8.305l81.536-81.536
			l-8.32-8.32C347.345,292.695,345.921,271.713,332.42,258.212z"/>
		<path d="M397.418,0l-9.149,1.193l-44.426,44.426l-5.023-5.023l-12.974,0.451c-5.192-5.187-13.604-5.187-18.79,0l-6.344,6.344
			l49.316,49.316l6.344-6.344c5.187-5.187,5.187-13.599,0-18.785L326.209,41.41l30.49,30.49l0.451-12.974l-5.35-5.35l44.426-44.426
			L397.418,0z"/>
		
			<rect x="275.043" y="70.889" transform="matrix(-0.7071 -0.7071 0.7071 -0.7071 467.1836 368.5205)" width="69.743" height="33.228"/>
	</g>
</g>
<g>
</g>
<g>
</g>
<g>
</g>
<g>
</g>
<g>
</g>
<g>
</g>
<g>
</g>
<g>
</g>
<g>
</g>
<g>
</g>
<g>
</g>
<g>
</g>
<g>
</g>
<g>
</g>
<g>
</g>
</svg>
