<?xml version="1.0" encoding="iso-8859-1"?>
<!-- Generator: Adobe Illustrator 19.0.0, SVG Export Plug-In . SVG Version: 6.00 Build 0)  -->
<svg version="1.1" id="Layer_1" xmlns="http://www.w3.org/2000/svg" xmlns:xlink="http://www.w3.org/1999/xlink" x="0px" y="0px"
	 viewBox="0 0 395.311 395.311" style="enable-background:new 0 0 395.311 395.311;" xml:space="preserve">
<g>
	<g>
		<path d="M373.221,291.948l-1.766-1.71l-9.692-9.395l-35.948-34.611l-23.839,24.596l-24.253,25.027l-18.888,19.487
			c-13.169,13.583-12.826,35.272,0.758,48.44l22.805,21.873c13.583,13.169,35.272,12.826,48.44-0.758l43.141-44.513
			C387.142,326.799,386.804,305.116,373.221,291.948z M319.256,271.299c2.35-2.135,5.985-1.956,8.115,0.394
			c2.135,2.35,1.956,5.985-0.394,8.115c-2.35,2.135-5.985,1.956-8.115-0.394C316.727,277.069,316.906,273.434,319.256,271.299z
			 M279.059,312.571c2.35-2.135,5.985-1.956,8.115,0.394c2.135,2.35,1.956,5.985-0.394,8.115c-2.35,2.135-5.985,1.956-8.115-0.394
			C276.535,318.336,276.714,314.701,279.059,312.571z M360.303,333.563l-37.064,38.241c-9.175,9.467-24.294,9.702-33.761,0.527
			c-9.467-9.175-9.702-24.294-0.527-33.761l37.064-38.241c9.175-9.467,24.294-9.702,33.761-0.527S369.478,324.096,360.303,333.563z"
			/>
		<polygon points="290.661,259.517 312.436,237.051 76.256,0 19.183,51.799 11.677,71.137 31.65,65.536 24.144,84.874 
			44.117,79.273 36.612,98.611 56.585,93.01 49.079,112.348 69.052,106.747 61.546,126.085 81.519,120.484 74.013,139.822 
			93.986,134.221 86.48,153.559 106.453,147.958 98.948,167.296 118.921,161.695 111.415,181.033 131.388,175.432 123.882,194.77 
			143.855,189.169 136.349,208.507 156.322,202.906 148.816,222.244 168.789,216.643 161.284,235.981 181.257,230.379 
			173.751,249.718 193.724,244.116 186.218,263.455 206.191,257.853 198.685,277.192 218.658,271.59 211.152,290.929 
			231.126,285.327 223.62,304.665 243.593,299.064 247.945,303.483 266.351,284.488 		"/>
	</g>
</g>
<g>
</g>
<g>
</g>
<g>
</g>
<g>
</g>
<g>
</g>
<g>
</g>
<g>
</g>
<g>
</g>
<g>
</g>
<g>
</g>
<g>
</g>
<g>
</g>
<g>
</g>
<g>
</g>
<g>
</g>
</svg>
