<?xml version="1.0" encoding="iso-8859-1"?>
<!-- Generator: Adobe Illustrator 16.0.0, SVG Export Plug-In . SVG Version: 6.00 Build 0)  -->
<!DOCTYPE svg PUBLIC "-//W3C//DTD SVG 1.1//EN" "http://www.w3.org/Graphics/SVG/1.1/DTD/svg11.dtd">
<svg version="1.1" id="Capa_1" xmlns="http://www.w3.org/2000/svg" xmlns:xlink="http://www.w3.org/1999/xlink" x="0px" y="0px"
	 width="350.982px" height="350.982px" viewBox="0 0 350.982 350.982" style="enable-background:new 0 0 350.982 350.982;"
	 xml:space="preserve">
<g>
	<g id="Artwork_7_">
		<g id="Layer_5_7_">
			<path d="M300.727,137.148c-26.397,0-43.146,29.428-47.105,29.428c-3.467,0-19.527-29.428-47.109-29.428
				c-26.828,0-48.733,22.125-50.167,48.917c-0.809,15.135,4.069,26.649,10.945,37.085c13.734,20.841,73.791,71.017,86.419,71.017
				c12.901,0,72.417-49.993,86.241-71.017c6.892-10.48,11.755-21.95,10.945-37.085C349.46,159.273,327.557,137.148,300.727,137.148"
				/>
			<path d="M153.095,232.505c-6.456-9.797-14.901-25.361-13.727-47.347c0.925-17.291,8.242-33.522,20.603-45.706
				c12.63-12.448,29.158-19.304,46.541-19.304c20.39,0,31.079,6.764,41.079,16.419c2.293,2.343,4.984,0.581,5.478-2.284
				c0.728-4.224,0.705-8.759,0.438-13.756c-1.868-34.895-30.396-63.712-65.341-63.712c-34.38,0-56.194,38.328-61.354,38.328
				c-4.514,0-25.433-38.328-61.357-38.328c-34.941,0-63.475,28.817-65.34,63.712c-1.053,19.713,5.3,34.712,14.256,48.301
				c17.888,27.146,96.107,92.496,112.557,92.496c5.477,0,17.409-6.931,31.623-17.205c0.756-0.546,1.942-1.878,0.436-3.833
				C155.89,236.732,155.091,235.533,153.095,232.505z"/>
		</g>
	</g>
</g>
<g>
</g>
<g>
</g>
<g>
</g>
<g>
</g>
<g>
</g>
<g>
</g>
<g>
</g>
<g>
</g>
<g>
</g>
<g>
</g>
<g>
</g>
<g>
</g>
<g>
</g>
<g>
</g>
<g>
</g>
</svg>
