<?xml version="1.0" encoding="iso-8859-1"?>
<!-- Generator: Adobe Illustrator 19.0.0, SVG Export Plug-In . SVG Version: 6.00 Build 0)  -->
<svg version="1.1" id="Layer_1" xmlns="http://www.w3.org/2000/svg" xmlns:xlink="http://www.w3.org/1999/xlink" x="0px" y="0px"
	 viewBox="0 0 343.975 343.975" style="enable-background:new 0 0 343.975 343.975;" xml:space="preserve">
<g>
	<g>
		<path d="M306.179,9.033c-25.738-9.774-55.931-4.352-76.662,16.379l-6.794,6.794l30.141,30.141L306.179,9.033z"/>
		<path d="M8.179,291.979c-10.906,10.906-10.906,28.59,0,39.496c10.906,10.906,28.59,10.906,39.496,0
			c0.108-0.108,0.174-0.23,0.276-0.338l166.344-166.344l-39.465-39.465L8.179,291.979z M33.493,318.869
			c-3.517,3.517-9.221,3.517-12.739,0s-3.517-9.221,0-12.739c3.517-3.517,9.221-3.517,12.739,0
			C37.01,309.648,37.01,315.352,33.493,318.869z"/>
		
			<rect x="218.463" y="65.958" transform="matrix(-0.7071 0.7071 -0.7071 -0.7071 455.2854 8.3673)" width="14.894" height="65.037"/>
		<path d="M339.264,42.118l-62.367,62.367L207.9,35.488l-0.374-0.374l-35.123,35.123c-6.994,6.994-6.994,18.33,0,25.324
			l13.261,13.261l0.056-0.056l48.082,48.082l-0.056,0.056l12.851,12.851c6.994,6.994,18.33,6.994,25.324,0l50.964-50.964
			C343.616,98.049,349.038,67.856,339.264,42.118z M244.416,137.181l-56.893-56.899l20.547-20.547l56.899,56.898L244.416,137.181z"
			/>
	</g>
</g>
<g>
</g>
<g>
</g>
<g>
</g>
<g>
</g>
<g>
</g>
<g>
</g>
<g>
</g>
<g>
</g>
<g>
</g>
<g>
</g>
<g>
</g>
<g>
</g>
<g>
</g>
<g>
</g>
<g>
</g>
</svg>
